<mxfile host="app.diagrams.net" modified="2022-10-02T05:59:02.538Z" agent="5.0 (Macintosh; Intel Mac OS X 10_15_7) AppleWebKit/605.1.15 (KHTML, like Gecko) Version/15.5 Safari/605.1.15" etag="jo8SlCHVOhVKtkLqvcNh" version="20.4.0" type="github">
  <diagram id="TwCInv9GuWYVzPujh3HL" name="Page-1">
    <mxGraphModel dx="976" dy="745" grid="0" gridSize="10" guides="1" tooltips="1" connect="1" arrows="1" fold="1" page="1" pageScale="1" pageWidth="850" pageHeight="1100" math="0" shadow="0">
      <root>
        <mxCell id="0" />
        <mxCell id="1" parent="0" />
        <mxCell id="luB2HOYWqoIe6doZfTrh-3" value="" style="edgeStyle=orthogonalEdgeStyle;rounded=0;orthogonalLoop=1;jettySize=auto;html=1;" edge="1" parent="1" source="luB2HOYWqoIe6doZfTrh-1" target="luB2HOYWqoIe6doZfTrh-2">
          <mxGeometry relative="1" as="geometry" />
        </mxCell>
        <mxCell id="luB2HOYWqoIe6doZfTrh-1" value="开始" style="rounded=1;whiteSpace=wrap;html=1;fillColor=#d5e8d4;strokeColor=#82b366;" vertex="1" parent="1">
          <mxGeometry x="290" y="320" width="120" height="60" as="geometry" />
        </mxCell>
        <mxCell id="luB2HOYWqoIe6doZfTrh-5" value="" style="edgeStyle=orthogonalEdgeStyle;rounded=0;orthogonalLoop=1;jettySize=auto;html=1;entryX=0.5;entryY=0;entryDx=0;entryDy=0;entryPerimeter=0;" edge="1" parent="1" source="luB2HOYWqoIe6doZfTrh-2" target="luB2HOYWqoIe6doZfTrh-11">
          <mxGeometry relative="1" as="geometry">
            <mxPoint x="350" y="600" as="targetPoint" />
          </mxGeometry>
        </mxCell>
        <mxCell id="luB2HOYWqoIe6doZfTrh-2" value="找到匹配标签的pod" style="whiteSpace=wrap;html=1;rounded=1;fillColor=#f5f5f5;fontColor=#333333;strokeColor=#666666;" vertex="1" parent="1">
          <mxGeometry x="290" y="460" width="120" height="60" as="geometry" />
        </mxCell>
        <mxCell id="luB2HOYWqoIe6doZfTrh-7" value="" style="edgeStyle=orthogonalEdgeStyle;rounded=0;orthogonalLoop=1;jettySize=auto;html=1;exitX=1;exitY=0.5;exitDx=0;exitDy=0;exitPerimeter=0;" edge="1" parent="1" source="luB2HOYWqoIe6doZfTrh-11" target="luB2HOYWqoIe6doZfTrh-6">
          <mxGeometry relative="1" as="geometry">
            <mxPoint x="410" y="630" as="sourcePoint" />
          </mxGeometry>
        </mxCell>
        <mxCell id="luB2HOYWqoIe6doZfTrh-10" value="" style="edgeStyle=orthogonalEdgeStyle;rounded=0;orthogonalLoop=1;jettySize=auto;html=1;exitX=0;exitY=0.5;exitDx=0;exitDy=0;exitPerimeter=0;" edge="1" parent="1" source="luB2HOYWqoIe6doZfTrh-11" target="luB2HOYWqoIe6doZfTrh-9">
          <mxGeometry relative="1" as="geometry">
            <mxPoint x="290" y="630" as="sourcePoint" />
          </mxGeometry>
        </mxCell>
        <mxCell id="luB2HOYWqoIe6doZfTrh-16" style="edgeStyle=orthogonalEdgeStyle;rounded=0;orthogonalLoop=1;jettySize=auto;html=1;" edge="1" parent="1" source="luB2HOYWqoIe6doZfTrh-6" target="luB2HOYWqoIe6doZfTrh-13">
          <mxGeometry relative="1" as="geometry">
            <Array as="points">
              <mxPoint x="630" y="800" />
            </Array>
          </mxGeometry>
        </mxCell>
        <mxCell id="luB2HOYWqoIe6doZfTrh-6" value="删除多余的pod" style="whiteSpace=wrap;html=1;rounded=1;fillColor=#f8cecc;strokeColor=#b85450;" vertex="1" parent="1">
          <mxGeometry x="570" y="620" width="120" height="60" as="geometry" />
        </mxCell>
        <mxCell id="luB2HOYWqoIe6doZfTrh-8" value="匹配到的数量&amp;gt;期望的数量" style="text;html=1;strokeColor=none;fillColor=none;align=center;verticalAlign=middle;whiteSpace=wrap;rounded=0;" vertex="1" parent="1">
          <mxGeometry x="420" y="600" width="150" height="40" as="geometry" />
        </mxCell>
        <mxCell id="luB2HOYWqoIe6doZfTrh-14" value="" style="edgeStyle=orthogonalEdgeStyle;rounded=0;orthogonalLoop=1;jettySize=auto;html=1;" edge="1" parent="1" source="luB2HOYWqoIe6doZfTrh-9" target="luB2HOYWqoIe6doZfTrh-13">
          <mxGeometry relative="1" as="geometry">
            <Array as="points">
              <mxPoint x="80" y="800" />
            </Array>
          </mxGeometry>
        </mxCell>
        <mxCell id="luB2HOYWqoIe6doZfTrh-9" value="使用当前的模版创建新的pod" style="whiteSpace=wrap;html=1;rounded=1;fillColor=#d5e8d4;strokeColor=#82b366;" vertex="1" parent="1">
          <mxGeometry x="20" y="620" width="120" height="60" as="geometry" />
        </mxCell>
        <mxCell id="luB2HOYWqoIe6doZfTrh-15" style="edgeStyle=orthogonalEdgeStyle;rounded=0;orthogonalLoop=1;jettySize=auto;html=1;" edge="1" parent="1" source="luB2HOYWqoIe6doZfTrh-11" target="luB2HOYWqoIe6doZfTrh-13">
          <mxGeometry relative="1" as="geometry" />
        </mxCell>
        <mxCell id="luB2HOYWqoIe6doZfTrh-11" value="比较匹配到的数量&lt;br&gt;与期望的数量" style="strokeWidth=2;html=1;shape=mxgraph.flowchart.decision;whiteSpace=wrap;fillColor=#ffe6cc;strokeColor=#d79b00;" vertex="1" parent="1">
          <mxGeometry x="275" y="580" width="150" height="140" as="geometry" />
        </mxCell>
        <mxCell id="luB2HOYWqoIe6doZfTrh-12" value="匹配到的数量&amp;lt;期望的数量" style="text;html=1;strokeColor=none;fillColor=none;align=center;verticalAlign=middle;whiteSpace=wrap;rounded=0;" vertex="1" parent="1">
          <mxGeometry x="140" y="600" width="150" height="40" as="geometry" />
        </mxCell>
        <mxCell id="luB2HOYWqoIe6doZfTrh-17" style="edgeStyle=orthogonalEdgeStyle;rounded=0;orthogonalLoop=1;jettySize=auto;html=1;" edge="1" parent="1" source="luB2HOYWqoIe6doZfTrh-13">
          <mxGeometry relative="1" as="geometry">
            <mxPoint x="350" y="430" as="targetPoint" />
            <Array as="points">
              <mxPoint x="350" y="880" />
              <mxPoint x="780" y="880" />
              <mxPoint x="780" y="430" />
            </Array>
          </mxGeometry>
        </mxCell>
        <mxCell id="luB2HOYWqoIe6doZfTrh-13" value="" style="shape=waypoint;sketch=0;size=6;pointerEvents=1;points=[];fillColor=default;resizable=0;rotatable=0;perimeter=centerPerimeter;snapToPoint=1;rounded=1;" vertex="1" parent="1">
          <mxGeometry x="330" y="780" width="40" height="40" as="geometry" />
        </mxCell>
      </root>
    </mxGraphModel>
  </diagram>
</mxfile>
